<svg xmlns="http://www.w3.org/2000/svg" xmlns:xlink="http://www.w3.org/1999/xlink" width="500" zoomAndPan="magnify" viewBox="0 0 375 374.999991" height="500" preserveAspectRatio="xMidYMid meet" version="1.0"><defs><clipPath id="e3ce2fa286"><path d="M 0 0 L 374.636719 0 L 374.636719 374.636719 L 0 374.636719 Z M 0 0 " clip-rule="nonzero"/></clipPath><clipPath id="fa9e234718"><path d="M 187.496094 0 C 83.945312 0 0 83.945312 0 187.496094 C 0 291.042969 83.945312 374.988281 187.496094 374.988281 C 291.042969 374.988281 374.988281 291.042969 374.988281 187.496094 C 374.988281 83.945312 291.042969 0 187.496094 0 Z M 187.496094 0 " clip-rule="nonzero"/></clipPath><clipPath id="189cc6df6a"><path d="M 26.144531 0.00390625 L 348.84375 0.00390625 L 348.84375 281.914062 L 26.144531 281.914062 Z M 26.144531 0.00390625 " clip-rule="nonzero"/></clipPath><clipPath id="6660894840"><path d="M 187.492188 0.00390625 L 348.84375 282.367188 L 26.144531 282.367188 Z M 187.492188 0.00390625 " clip-rule="nonzero"/></clipPath><clipPath id="1ac7c9b0e2"><path d="M 112.378906 132.132812 L 262.234375 132.132812 L 262.234375 281.988281 L 112.378906 281.988281 Z M 112.378906 132.132812 " clip-rule="nonzero"/></clipPath><clipPath id="8b1ec8cb38"><path d="M 112.378906 132.132812 L 262.234375 132.132812 L 262.234375 281.988281 L 112.378906 281.988281 Z M 112.378906 132.132812 " clip-rule="nonzero"/></clipPath><clipPath id="6cfcc03110"><path d="M 187.496094 132.132812 C 146.011719 132.132812 112.378906 165.765625 112.378906 207.25 C 112.378906 248.738281 146.011719 282.371094 187.496094 282.371094 C 228.984375 282.371094 262.617188 248.738281 262.617188 207.25 C 262.617188 165.765625 228.984375 132.132812 187.496094 132.132812 Z M 187.496094 132.132812 " clip-rule="nonzero"/></clipPath><clipPath id="5006515493"><path d="M 140.441406 141.1875 L 234.558594 141.1875 L 234.558594 235.308594 L 140.441406 235.308594 Z M 140.441406 141.1875 " clip-rule="nonzero"/></clipPath><clipPath id="c1cc25581b"><path d="M 187.5 141.1875 C 161.507812 141.1875 140.441406 162.257812 140.441406 188.246094 C 140.441406 214.238281 161.507812 235.308594 187.5 235.308594 C 213.492188 235.308594 234.558594 214.238281 234.558594 188.246094 C 234.558594 162.257812 213.492188 141.1875 187.5 141.1875 Z M 187.5 141.1875 " clip-rule="nonzero"/></clipPath></defs><g clip-path="url(#e3ce2fa286)"><g clip-path="url(#fa9e234718)"><path stroke-linecap="butt" transform="matrix(0.936594, 0, 0, 0.936594, 0.0000045, 0.000000000000021316)" fill="none" stroke-linejoin="miter" d="M 200.189274 -0.000000000000022759 C 89.628271 -0.000000000000022759 -0.00000480464 89.628276 -0.00000480464 200.189279 C -0.00000480464 310.746111 89.628271 400.374387 200.189274 400.374387 C 310.746106 400.374387 400.374382 310.746111 400.374382 200.189279 C 400.374382 89.628276 310.746106 -0.000000000000022759 200.189274 -0.000000000000022759 Z M 200.189274 -0.000000000000022759 " stroke="#ffffff" stroke-width="20.820116" stroke-opacity="1" stroke-miterlimit="4"/></g></g><g clip-path="url(#189cc6df6a)"><g clip-path="url(#6660894840)"><path stroke-linecap="butt" transform="matrix(0.936594, 0, 0, 0.936594, 26.143304, 0.00274393)" fill="none" stroke-linejoin="miter" d="M 172.271936 0.00124101 L 344.546732 301.480048 L 0.00131078 301.480048 Z M 172.271936 0.00124101 " stroke="#ffffff" stroke-width="20.820116" stroke-opacity="1" stroke-miterlimit="4"/></g></g><g clip-path="url(#1ac7c9b0e2)"><path stroke-linecap="butt" transform="matrix(0.936594, 0, 0, 0.936594, 112.379815, 132.133849)" fill="none" stroke-linejoin="miter" d="M -0.000969972 -0.00110659 L 160.408194 -0.00110659 L 160.408194 160.408057 L -0.000969972 160.408057 Z M -0.000969972 -0.00110659 " stroke="#ffffff" stroke-width="20.820116" stroke-opacity="1" stroke-miterlimit="4"/></g><g clip-path="url(#8b1ec8cb38)"><g clip-path="url(#6cfcc03110)"><path stroke-linecap="butt" transform="matrix(0.936594, 0, 0, 0.936594, 112.379815, 132.133849)" fill="none" stroke-linejoin="miter" d="M 80.201531 -0.00110659 C 35.90873 -0.00110659 -0.000969972 35.908593 -0.000969972 80.201394 C -0.000969972 124.498365 35.90873 160.408065 80.201531 160.408065 C 124.498502 160.408065 160.408202 124.498365 160.408202 80.201394 C 160.408202 35.908593 124.498502 -0.00110659 80.201531 -0.00110659 Z M 80.201531 -0.00110659 " stroke="#ffffff" stroke-width="20.820116" stroke-opacity="1" stroke-miterlimit="4"/></g></g><g clip-path="url(#5006515493)"><g clip-path="url(#c1cc25581b)"><path fill="#ffffff" d="M 140.441406 141.1875 L 234.558594 141.1875 L 234.558594 235.308594 L 140.441406 235.308594 Z M 140.441406 141.1875 " fill-opacity="1" fill-rule="nonzero"/></g></g></svg>