<svg xmlns="http://www.w3.org/2000/svg" xmlns:xlink="http://www.w3.org/1999/xlink" width="500" zoomAndPan="magnify" viewBox="0 0 375 374.999991" height="500" preserveAspectRatio="xMidYMid meet" version="1.0"><defs><clipPath id="9dd71b4269"><path d="M 0 0 L 374.90625 0 L 374.90625 374.90625 L 0 374.90625 Z M 0 0 " clip-rule="nonzero"/></clipPath><clipPath id="035f8739e0"><path d="M 187.496094 0 C 83.945312 0 0 83.945312 0 187.496094 C 0 291.050781 83.945312 374.996094 187.496094 374.996094 C 291.050781 374.996094 374.996094 291.050781 374.996094 187.496094 C 374.996094 83.945312 291.050781 0 187.496094 0 Z M 187.496094 0 " clip-rule="nonzero"/></clipPath><clipPath id="759bcf586d"><path d="M 26.148438 0 L 348.5625 0 L 348.5625 282.117188 L 26.148438 282.117188 Z M 26.148438 0 " clip-rule="nonzero"/></clipPath><clipPath id="598f41b3d2"><path d="M 187.5 0 L 348.851562 282.367188 L 26.148438 282.367188 Z M 187.5 0 " clip-rule="nonzero"/></clipPath><clipPath id="1c2b4394cc"><path d="M 112.378906 132.132812 L 262.34375 132.132812 L 262.34375 282.097656 L 112.378906 282.097656 Z M 112.378906 132.132812 " clip-rule="nonzero"/></clipPath><clipPath id="e68e32b279"><path d="M 112.378906 132.132812 L 262.34375 132.132812 L 262.34375 282.097656 L 112.378906 282.097656 Z M 112.378906 132.132812 " clip-rule="nonzero"/></clipPath><clipPath id="cda8a8295a"><path d="M 187.492188 132.132812 C 146.007812 132.132812 112.378906 165.761719 112.378906 207.246094 C 112.378906 248.730469 146.007812 282.359375 187.492188 282.359375 C 228.976562 282.359375 262.605469 248.730469 262.605469 207.246094 C 262.605469 165.761719 228.976562 132.132812 187.492188 132.132812 Z M 187.492188 132.132812 " clip-rule="nonzero"/></clipPath><clipPath id="402651449e"><path d="M 140.445312 141.1875 L 234.554688 141.1875 L 234.554688 235.292969 L 140.445312 235.292969 Z M 140.445312 141.1875 " clip-rule="nonzero"/></clipPath><clipPath id="78482bd9f2"><path d="M 187.5 141.1875 C 161.511719 141.1875 140.445312 162.253906 140.445312 188.242188 C 140.445312 214.226562 161.511719 235.292969 187.5 235.292969 C 213.488281 235.292969 234.554688 214.226562 234.554688 188.242188 C 234.554688 162.253906 213.488281 141.1875 187.5 141.1875 Z M 187.5 141.1875 " clip-rule="nonzero"/></clipPath></defs><g clip-path="url(#9dd71b4269)"><g clip-path="url(#035f8739e0)"><path stroke-linecap="butt" transform="matrix(0.937266, 0, 0, 0.937266, 0.0000045, 0.000000000000021316)" fill="none" stroke-linejoin="miter" d="M 200.045706 -0.000000000000022743 C 89.563993 -0.000000000000022743 -0.0000048012 89.563998 -0.0000048012 200.045711 C -0.0000048012 310.531592 89.563993 400.09559 200.045706 400.09559 C 310.531588 400.09559 400.095586 310.531592 400.095586 200.045711 C 400.095586 89.563998 310.531588 -0.000000000000022743 200.045706 -0.000000000000022743 Z M 200.045706 -0.000000000000022743 " stroke="#000000" stroke-width="20.805185" stroke-opacity="1" stroke-miterlimit="4"/></g></g><g clip-path="url(#759bcf586d)"><g clip-path="url(#598f41b3d2)"><path stroke-linecap="butt" transform="matrix(0.937266, 0, 0, 0.937266, 26.147489, 0.000000000000021316)" fill="none" stroke-linejoin="miter" d="M 172.152268 -0.000000000000022743 L 344.303524 301.266782 L 0.00101153 301.266782 Z M 172.152268 -0.000000000000022743 " stroke="#000000" stroke-width="20.805185" stroke-opacity="1" stroke-miterlimit="4"/></g></g><g clip-path="url(#1c2b4394cc)"><path stroke-linecap="butt" transform="matrix(0.937266, 0, 0, 0.937266, 112.379822, 132.133849)" fill="none" stroke-linejoin="miter" d="M -0.000976959 -0.00110579 L 160.280653 -0.00110579 L 160.280653 160.280524 L -0.000976959 160.280524 Z M -0.000976959 -0.00110579 " stroke="#000000" stroke-width="20.805185" stroke-opacity="1" stroke-miterlimit="4"/></g><g clip-path="url(#e68e32b279)"><g clip-path="url(#cda8a8295a)"><path stroke-linecap="butt" transform="matrix(0.937266, 0, 0, 0.937266, 112.379822, 132.133849)" fill="none" stroke-linejoin="miter" d="M 80.139838 -0.00110579 C 35.878802 -0.00110579 -0.000976959 35.878674 -0.000976959 80.139709 C -0.000976959 124.400745 35.878802 160.280524 80.139838 160.280524 C 124.400874 160.280524 160.280653 124.400745 160.280653 80.139709 C 160.280653 35.878674 124.400874 -0.00110579 80.139838 -0.00110579 Z M 80.139838 -0.00110579 " stroke="#000000" stroke-width="20.805185" stroke-opacity="1" stroke-miterlimit="4"/></g></g><g clip-path="url(#402651449e)"><g clip-path="url(#78482bd9f2)"><path fill="#000000" d="M 140.445312 141.1875 L 234.554688 141.1875 L 234.554688 235.292969 L 140.445312 235.292969 Z M 140.445312 141.1875 " fill-opacity="1" fill-rule="nonzero"/></g></g></svg>