<svg xmlns="http://www.w3.org/2000/svg" xmlns:xlink="http://www.w3.org/1999/xlink" width="500" zoomAndPan="magnify" viewBox="0 0 375 374.999991" height="500" preserveAspectRatio="xMidYMid meet" version="1.0"><defs><clipPath id="d14a0e9121"><path d="M 37.355469 37.355469 L 337.355469 37.355469 L 337.355469 337.355469 L 37.355469 337.355469 Z M 37.355469 37.355469 " clip-rule="nonzero"/></clipPath><clipPath id="a9a7702dd2"><path d="M 187.496094 37.355469 C 104.574219 37.355469 37.355469 104.574219 37.355469 187.496094 C 37.355469 270.414062 104.574219 337.636719 187.496094 337.636719 C 270.414062 337.636719 337.636719 270.414062 337.636719 187.496094 C 337.636719 104.574219 270.414062 37.355469 187.496094 37.355469 Z M 187.496094 37.355469 " clip-rule="nonzero"/></clipPath><clipPath id="2e89ef65fe"><path d="M 58.289062 37.355469 L 316.699219 37.355469 L 316.699219 263.105469 L 58.289062 263.105469 Z M 58.289062 37.355469 " clip-rule="nonzero"/></clipPath><clipPath id="76114b17c5"><path d="M 187.496094 37.355469 L 316.699219 263.464844 L 58.289062 263.464844 Z M 187.496094 37.355469 " clip-rule="nonzero"/></clipPath><clipPath id="bdb1f452c9"><path d="M 127.347656 143.164062 L 247.347656 143.164062 L 247.347656 263.164062 L 127.347656 263.164062 Z M 127.347656 143.164062 " clip-rule="nonzero"/></clipPath><clipPath id="d9913c6ee5"><path d="M 127.347656 143.164062 L 247.347656 143.164062 L 247.347656 263.164062 L 127.347656 263.164062 Z M 127.347656 143.164062 " clip-rule="nonzero"/></clipPath><clipPath id="c958fc226e"><path d="M 187.5 143.164062 C 154.277344 143.164062 127.347656 170.09375 127.347656 203.316406 C 127.347656 236.539062 154.277344 263.46875 187.5 263.46875 C 220.71875 263.46875 247.652344 236.539062 247.652344 203.316406 C 247.652344 170.09375 220.71875 143.164062 187.5 143.164062 Z M 187.5 143.164062 " clip-rule="nonzero"/></clipPath><clipPath id="1309d2eaa1"><path d="M 149.816406 150.414062 L 225.183594 150.414062 L 225.183594 225.785156 L 149.816406 225.785156 Z M 149.816406 150.414062 " clip-rule="nonzero"/></clipPath><clipPath id="be43dbeb90"><path d="M 187.5 150.414062 C 166.6875 150.414062 149.816406 167.285156 149.816406 188.097656 C 149.816406 208.910156 166.6875 225.785156 187.5 225.785156 C 208.3125 225.785156 225.183594 208.910156 225.183594 188.097656 C 225.183594 167.285156 208.3125 150.414062 187.5 150.414062 Z M 187.5 150.414062 " clip-rule="nonzero"/></clipPath></defs><g clip-path="url(#d14a0e9121)"><g clip-path="url(#a9a7702dd2)"><path stroke-linecap="butt" transform="matrix(0.75, 0, 0, 0.75, 37.354935, 37.354931)" fill="none" stroke-linejoin="miter" d="M 200.188225 0.000717657 C 89.625718 0.000717657 0.000711657 89.625724 0.000711657 200.188231 C 0.000711657 310.74553 89.625718 400.375744 200.188225 400.375744 C 310.745524 400.375744 400.375738 310.74553 400.375738 200.188231 C 400.375738 89.625724 310.745524 0.000717657 200.188225 0.000717657 Z M 200.188225 0.000717657 " stroke="#ffffff" stroke-width="26" stroke-opacity="1" stroke-miterlimit="4"/></g></g><g clip-path="url(#2e89ef65fe)"><g clip-path="url(#76114b17c5)"><path stroke-linecap="butt" transform="matrix(0.75, 0, 0, 0.75, 58.289804, 37.357128)" fill="none" stroke-linejoin="miter" d="M 172.275064 -0.00221194 L 344.545909 301.476975 L -0.000988496 301.476975 Z M 172.275064 -0.00221194 " stroke="#ffffff" stroke-width="26" stroke-opacity="1" stroke-miterlimit="4"/></g></g><g clip-path="url(#bdb1f452c9)"><path stroke-linecap="butt" transform="matrix(0.75, 0, 0, 0.75, 127.345734, 143.164239)" fill="none" stroke-linejoin="miter" d="M 0.00256335 -0.000234799 L 160.408824 -0.000234799 L 160.408824 160.406026 L 0.00256335 160.406026 Z M 0.00256335 -0.000234799 " stroke="#ffffff" stroke-width="26" stroke-opacity="1" stroke-miterlimit="4"/></g><g clip-path="url(#d9913c6ee5)"><g clip-path="url(#c958fc226e)"><path stroke-linecap="butt" transform="matrix(0.75, 0, 0, 0.75, 127.345734, 143.164239)" fill="none" stroke-linejoin="miter" d="M 80.205694 -0.000234799 C 35.908816 -0.000234799 0.00256335 35.906018 0.00256335 80.202895 C 0.00256335 124.499773 35.908816 160.406026 80.205694 160.406026 C 124.497363 160.406026 160.408824 124.499773 160.408824 80.202895 C 160.408824 35.906018 124.497363 -0.000234799 80.205694 -0.000234799 Z M 80.205694 -0.000234799 " stroke="#ffffff" stroke-width="26" stroke-opacity="1" stroke-miterlimit="4"/></g></g><g clip-path="url(#1309d2eaa1)"><g clip-path="url(#be43dbeb90)"><path fill="#ffffff" d="M 149.816406 150.414062 L 225.183594 150.414062 L 225.183594 225.785156 L 149.816406 225.785156 Z M 149.816406 150.414062 " fill-opacity="1" fill-rule="nonzero"/></g></g></svg>